<?xml version="1.0" encoding="utf-8"?>
<!-- Generator: Adobe Illustrator 16.0.0, SVG Export Plug-In . SVG Version: 6.00 Build 0)  -->
<!DOCTYPE svg PUBLIC "-//W3C//DTD SVG 1.1//EN" "http://www.w3.org/Graphics/SVG/1.1/DTD/svg11.dtd">
<svg version="1.1" id="Layer_1" xmlns="http://www.w3.org/2000/svg" xmlns:xlink="http://www.w3.org/1999/xlink" x="0px" y="0px"
	 width="64px" height="64px" viewBox="0 0 64 64" enable-background="new 0 0 64 64" xml:space="preserve">
<g>
	<path d="M32.002,63.75C14.494,63.75,0.25,49.507,0.25,32S14.494,0.25,32.003,0.25C49.509,0.25,63.75,14.493,63.75,32
		S49.508,63.75,32.002,63.75z M32.003,2.25C15.597,2.25,2.25,15.596,2.25,32s13.347,29.75,29.752,29.75
		C48.405,61.75,61.75,48.404,61.75,32S48.405,2.25,32.003,2.25z"/>
	<g>
		<ellipse cx="21.059" cy="23.3" rx="4.433" ry="5.68"/>
		<ellipse cx="42.943" cy="23.3" rx="4.43" ry="5.68"/>
	</g>
	<g>
		<path d="M32.316,49.92c-0.277,0-0.555-0.005-0.833-0.015c-11.056-0.398-18.573-8.531-18.888-8.877l1.479-1.347
			c0.072,0.079,7.294,7.867,17.5,8.226c6.485,0.209,12.824-2.558,18.83-8.276l1.379,1.449C45.619,46.948,39.074,49.92,32.316,49.92z
			"/>
		<rect x="12.771" y="37.129" transform="matrix(0.8268 0.5626 -0.5626 0.8268 25.0987 -0.7521)" width="2" height="6.491"/>
		<rect x="47.64" y="39.375" transform="matrix(0.5627 0.8266 -0.8266 0.5627 55.6252 -24.4091)" width="6.49" height="1.999"/>
	</g>
	<path d="M24.625,47.591c-0.372,0.937-0.58,1.956-0.58,3.029c0,4.446,3.523,8.054,7.871,8.054c4.348,0,7.871-3.605,7.871-8.054
		c0-1.05-0.203-2.048-0.561-2.968C33.738,49.497,28.745,48.98,24.625,47.591z"/>
</g>
</svg>
