<?xml version="1.0" encoding="iso-8859-1"?>
<!-- Generator: Adobe Illustrator 19.0.0, SVG Export Plug-In . SVG Version: 6.00 Build 0)  -->
<svg version="1.1" id="Layer_1" xmlns="http://www.w3.org/2000/svg" xmlns:xlink="http://www.w3.org/1999/xlink" x="0px" y="0px"
	 viewBox="0 0 455 455" style="enable-background:new 0 0 455 455;" xml:space="preserve">
<g>
	<path style="fill-rule:evenodd;clip-rule:evenodd;" d="M189.898,203.01c-16.88,0-24.661,13.375-24.661,26.347
		c0,13.929,8.677,26.514,24.767,26.514c13.481,0,24.565-10.53,24.565-26.655C214.568,214.19,204.96,203.01,189.898,203.01z"/>
	<path style="fill-rule:evenodd;clip-rule:evenodd;" d="M110.171,202.562c-11.698,0-23.528,7.377-23.528,20.34h45.897
		C132.54,210.695,123.485,202.562,110.171,202.562z"/>
	<path style="fill-rule:evenodd;clip-rule:evenodd;" d="M246.132,243.594c0,6.859,5.076,12.796,17.011,12.796
		c21.719,0,25.425-14.851,25.425-20.858v-4.567C263.319,230.965,246.132,231.035,246.132,243.594z"/>
	<path style="fill-rule:evenodd;clip-rule:evenodd;" d="M0,0v455h455V0H0z M336.187,290.624h-17.776l14.07-26.725l-29.983-56.26
		c1.37,3.259,2.125,7.105,2.125,11.733v34.585c0,4.014,0.58,10.258,0.58,10.258h-14.781c0,0-0.378-5.05-0.378-10.161
		c0,0-7.518,12.866-30.809,12.866c-17.117,0-29.746-8.229-29.746-23.361c0-0.861,0.035-1.713,0.14-2.538
		c-4.426,15.571-17.74,25.698-35.718,25.698c-21.095,0-28.85-12.146-28.85-12.146c0,4.628-0.544,9.643-0.544,9.643h-15.712
		c0,0,0.343-7,0.343-11.979v-18.733H86.265c0,13.244,10.047,22.685,24.046,22.685c17.152,0,20.683-12.05,20.683-12.05h16.467
		c0,0-2.195,22.369-36.157,22.369c-28.85,0-41.304-14.201-41.304-36.702c0-28.482,18.487-37.879,40.724-37.879
		c29.711,0,38.177,19.594,38.423,32.697v-60.248h16.054v39.591c0,0,6.824-11.83,28.745-11.83c23.361,0,37.229,16.529,37.229,37.08
		c0,2.538-0.211,5.015-0.588,7.377c3.741-10.706,16.845-15.984,38.458-15.984h19.523v-3.469c0-9.634-8.51-14.684-19.523-14.684
		c-16.915,0-17.767,10.705-17.767,10.705h-16.643c0-2.951,2.16-21.236,35.578-21.236c11.426,0,23.915,2.406,30.256,11.838
		l-4.804-8.958h18.733l26.866,53.792l26.795-53.792H385L336.187,290.624z"/>
</g>
<g>
</g>
<g>
</g>
<g>
</g>
<g>
</g>
<g>
</g>
<g>
</g>
<g>
</g>
<g>
</g>
<g>
</g>
<g>
</g>
<g>
</g>
<g>
</g>
<g>
</g>
<g>
</g>
<g>
</g>
</svg>
